<?xml version="1.0" encoding="utf-8"?>
<!-- Generator: Adobe Illustrator 24.0.0, SVG Export Plug-In . SVG Version: 6.00 Build 0)  -->
<svg version="1.1" id="Layer_1" xmlns="http://www.w3.org/2000/svg" xmlns:xlink="http://www.w3.org/1999/xlink" x="0px" y="0px"
	 viewBox="0 0 512 512" style="enable-background:new 0 0 512 512;" xml:space="preserve">
<style type="text/css">
	.st0{fill:#476EB4;}
</style>
<g>
	<g>
		<path class="st0" d="M328.3,0C226.8,0,144.5,82.3,144.5,183.7c0,44.7,16,85.7,42.6,117.5L149.4,339c-0.1,0.1-0.2,0.3-0.3,0.5
			c-18.6-8.8-41.4-6-56.7,9.4l-77.7,77.7c-19.5,19.5-19.5,51.3,0,70.9c19.6,19.6,51.3,19.6,70.9,0l77.7-77.7
			c15.4-15.4,18.2-38.2,9.3-56.8c0.1-0.1,0.3-0.2,0.5-0.3l37.7-37.7c31.9,26.6,72.8,42.6,117.5,42.6c101.5,0,183.7-82.3,183.7-183.7
			C512,82.3,429.7,0,328.3,0z M328.3,300.6c-64.5,0-116.9-52.4-116.9-116.9c0-64.5,52.4-116.9,116.9-116.9
			c64.5,0,116.9,52.4,116.9,116.9C445.2,248.2,392.8,300.6,328.3,300.6z"/>
	</g>
</g>
</svg>
